<svg width="93" height="26" xmlns="http://www.w3.org/2000/svg" xmlns:xlink="http://www.w3.org/1999/xlink" xml:space="preserve" overflow="hidden"><g transform="translate(-604 -250)"><path d="M0 22.0317 0 14.6327 4.4434 12.0673 9.19802 14.8124C9.71568 15.1116 10.1456 15.5418 10.4445 16.0598 10.7435 16.5777 10.901 17.1651 10.9012 17.7631L10.9012 23.0545 6.33657 25.6897 0 22.0317Z" fill="#FFFFFF" transform="matrix(1.02198 0 0 1 604 250)"/><path d="M25.3459 22.0317 25.3459 14.6327 20.9025 12.0673 16.1479 14.8124C15.6302 15.1116 15.2003 15.5418 14.9014 16.0598 14.6024 16.5777 14.4449 17.1651 14.4447 17.7631L14.4447 23.0545 19.0072 25.6897 25.3459 22.0317Z" fill="#FFFFFF" transform="matrix(1.02198 0 0 1 604 250)"/><path d="M39.8444 25.6897C37.6844 25.7621 35.5513 25.1945 33.7129 24.0585 32.8995 23.5342 32.2066 22.8436 31.6798 22.032 31.1529 21.2203 30.8043 20.3062 30.6566 19.3499L34.5946 19.3499C35.1942 21.4256 37.0068 22.4633 40.0321 22.463 41.1669 22.5171 42.2967 22.279 43.3131 21.7713 43.6893 21.5815 44.0037 21.2885 44.2195 20.9266 44.4354 20.5647 44.5437 20.1489 44.5318 19.7277 44.5318 18.2779 43.5068 17.4905 41.4567 17.3652L37.2568 17.0275C35.6773 16.9583 34.155 16.4161 32.8876 15.471 32.3319 15.0189 31.8911 14.4419 31.6011 13.7869 31.3111 13.132 31.1802 12.4177 31.219 11.7024 31.1842 10.8486 31.3694 10.0001 31.7568 9.23849 32.1442 8.4768 32.7209 7.82744 33.4315 7.3527 34.9061 6.32836 36.8184 5.81582 39.1684 5.8151 41.2156 5.74823 43.2393 6.26842 45.0005 7.31427 45.7905 7.81562 46.4694 8.47364 46.995 9.24768 47.5207 10.0217 47.882 10.8953 48.0568 11.8145L44.0815 11.8145C43.7443 10.8814 43.0588 10.1153 42.1689 9.67668 41.2358 9.21917 40.208 8.98794 39.1689 9.00181 38.1105 8.95293 37.0575 9.17904 36.1126 9.65831 35.7624 9.83355 35.469 10.1046 35.2665 10.4399 35.0639 10.7751 34.9606 11.1609 34.9685 11.5526 34.9685 12.928 35.9811 13.6779 38.0064 13.8024L42.0942 14.1027C44.0426 14.2525 45.5614 14.7712 46.6507 15.6588 47.1991 16.1232 47.6319 16.7088 47.915 17.3694 48.1979 18.0299 48.3234 18.7472 48.2814 19.4646 48.3166 20.3668 48.1195 21.2631 47.7092 22.0674 47.2989 22.8717 46.689 23.5573 45.9379 24.0585 44.3749 25.146 42.3437 25.6897 39.8444 25.6897" fill="#FFFFFF" transform="matrix(1.02198 0 0 1 604 250)"/><path d="M60.3932 5.81453C61.6683 5.78438 62.9355 6.02065 64.1141 6.50823 65.2926 6.99582 66.3564 7.72399 67.2375 8.64617 68.1493 9.58577 68.8632 10.6989 69.3367 11.9196 69.8102 13.1403 70.0337 14.4437 69.9938 15.7524 70.035 17.0723 69.803 18.3865 69.3124 19.6126 68.822 20.8387 68.0834 21.9502 67.1433 22.8775 66.1959 23.8087 65.0697 24.5383 63.8324 25.022 62.5953 25.5057 61.2728 25.7336 59.9451 25.6918 56.9955 25.6918 54.589 24.7606 52.7257 22.898 51.7996 21.9665 51.0739 20.8554 50.5933 19.6329 50.1127 18.4104 49.8872 17.1025 49.9309 15.7897L49.9309 0.635612 53.6805 0.635612 53.6805 9.1143C54.417 8.08353 55.4043 7.2576 56.549 6.71457 57.7421 6.11903 59.058 5.81081 60.3916 5.81453L60.3932 5.81453ZM53.7557 15.7524C53.7232 16.5845 53.8574 17.4148 54.1505 18.1943 54.4436 18.9738 54.8896 19.6869 55.4622 20.2915 56.0511 20.8837 56.7573 21.3464 57.5354 21.6499 58.3135 21.9535 59.1464 22.0912 59.9808 22.0543 60.8012 22.0776 61.6176 21.9315 62.379 21.6251 63.1404 21.3186 63.8303 20.8584 64.4058 20.2732 64.9906 19.6784 65.4483 18.9709 65.7513 18.1938 66.0544 17.4166 66.1963 16.586 66.1685 15.7524 66.1924 14.9224 66.0487 14.0962 65.7459 13.3233 65.4431 12.5502 64.9875 11.8461 64.4063 11.2532 63.8338 10.6628 63.1448 10.1978 62.383 9.8878 61.6213 9.57771 60.8034 9.42933 59.9813 9.45204 59.1533 9.42673 58.3291 9.57381 57.561 9.8839 56.7928 10.1939 56.0974 10.6603 55.519 11.2532 54.9375 11.846 54.4816 12.5501 54.1787 13.3233 53.8758 14.0965 53.7321 14.9229 53.7562 15.7529" fill="#FFFFFF" transform="matrix(1.02198 0 0 1 604 250)"/><path d="M86.4591 19.3526C86.046 20.0119 85.5026 20.5797 84.862 21.0212 83.8664 21.7114 82.6793 22.072 81.468 22.0522 80.664 22.0777 79.8639 21.9322 79.1205 21.6252 78.3771 21.3183 77.7073 20.8569 77.1556 20.2716 76.0165 19.0481 75.4095 17.4225 75.468 15.7519 75.4428 14.9265 75.5806 14.1043 75.8734 13.3322 76.1662 12.5601 76.6083 11.8533 77.1745 11.2522 77.7219 10.6653 78.3877 10.2013 79.1279 9.89109 79.8681 9.58083 80.6657 9.43141 81.468 9.45265 82.6859 9.42751 83.8806 9.78848 84.8809 10.4837 85.4006 10.8488 85.8553 11.2986 86.2259 11.8146L90.5017 11.8146C89.9331 10.2554 88.9408 8.88559 87.6373 7.85878 85.8807 6.48128 83.6991 5.75867 81.4674 5.81513 80.1651 5.77701 78.8688 6.00717 77.6591 6.49132 76.4495 6.97548 75.3523 7.70328 74.4359 8.62947 73.5108 9.56514 72.786 10.6794 72.3057 11.9044 71.8253 13.1295 71.5996 14.4394 71.6422 15.7546 71.5999 17.0695 71.826 18.3793 72.3065 19.604 72.787 20.8287 73.5119 21.9427 74.437 22.8781 75.3534 23.8044 76.4505 24.5322 77.6602 25.0163 78.8699 25.5005 80.1661 25.7306 81.4686 25.6924 83.6917 25.7507 85.8658 25.0339 87.6183 23.665 89.024 22.5565 90.0683 21.0556 90.6195 19.3526L86.4591 19.3526Z" fill="#FFFFFF" transform="matrix(1.02198 0 0 1 604 250)"/><path d="M12.6735 0 6.3375 3.65809 6.3375 9.07027 10.44 11.4386C11.1191 11.8308 11.8895 12.0372 12.6738 12.0372 13.458 12.0372 14.2285 11.8308 14.9077 11.4386L19.0112 9.06915 19.0112 3.657 12.6735 0ZM12.6735 9.98599C11.9451 9.98599 11.2465 9.69661 10.7313 9.18155 10.2163 8.66642 9.92689 7.9678 9.92689 7.23933 9.9268 6.87859 9.99778 6.52135 10.1358 6.18805 10.2738 5.85475 10.4761 5.55189 10.7312 5.29678 10.9862 5.04167 11.289 4.8393 11.6223 4.70123 11.9556 4.56317 12.3128 4.49211 12.6735 4.49211 13.402 4.49211 14.1007 4.78149 14.6157 5.29659 15.1309 5.81169 15.4203 6.51032 15.4203 7.23878 15.4203 7.59953 15.3493 7.95675 15.2113 8.29006 15.0733 8.62337 14.871 8.92623 14.6159 9.18129 14.3608 9.43644 14.058 9.63881 13.7248 9.77687 13.3915 9.91493 13.0343 9.98599 12.6735 9.98599" fill="#FFFFFF" transform="matrix(1.02198 0 0 1 604 250)"/></g></svg>