<svg width="106" height="21" xmlns="http://www.w3.org/2000/svg" xmlns:xlink="http://www.w3.org/1999/xlink" xml:space="preserve" overflow="hidden"><defs><clipPath id="clip0"><rect x="256" y="370" width="106" height="21"/></clipPath></defs><g clip-path="url(#clip0)" transform="translate(-256 -370)"><path d="M18.333 8.526C18.333 7.79801 18.2175 7.13651 17.9865 6.54499 17.7555 5.9535 17.4265 5.44601 17.0065 5.02601 16.5865 4.60601 16.079 4.27702 15.4875 4.04602 14.896 3.81502 14.245 3.69952 13.5345 3.69952L8.526 3.69952C7.80499 3.69952 7.1505 3.81502 6.55901 4.04602 5.96749 4.27702 5.45651 4.60601 5.0295 5.02601 4.60249 5.44601 4.2735 5.9535 4.0425 6.54499 3.8115 7.13651 3.696 7.79801 3.696 8.526L3.696 12.4215C3.696 13.1495 3.8115 13.811 4.0425 14.4025 4.2735 14.994 4.60249 15.5015 5.0295 15.9215 5.45651 16.3415 5.964 16.6705 6.55901 16.9015 7.1505 17.1325 7.80851 17.248 8.526 17.248L13.4995 17.248C14.2205 17.248 14.875 17.1325 15.4665 16.9015 16.058 16.6705 16.569 16.3415 16.996 15.9215 17.423 15.5015 17.752 14.994 17.983 14.4025 18.214 13.811 18.3295 13.1495 18.3295 12.4215L18.333 8.526ZM22.029 12.4215C22.029 13.664 21.8155 14.805 21.3885 15.848 20.9615 16.891 20.37 17.7905 19.6105 18.5465 18.851 19.306 17.955 19.894 16.919 20.3175 15.883 20.7375 14.7525 20.951 13.531 20.951L8.526 20.951C7.30451 20.951 6.17051 20.741 5.13101 20.3175 4.08799 19.8975 3.18851 19.306 2.4325 18.5465 1.673 17.787 1.0815 16.8875 0.647501 15.848 0.217 14.805 0 13.6605 0 12.4215L0 8.526C0 7.29401 0.217 6.15649 0.647501 5.10649 1.078 4.06001 1.673 3.1605 2.4325 2.408 3.192 1.6555 4.09151 1.06401 5.13101 0.637011 6.174 0.21001 7.30451-0.00350004 8.526-0.00350004L13.5275-0.00350004C14.749-0.00350004 15.8795 0.21001 16.9155 0.637011 17.9515 1.06401 18.851 1.652 19.607 2.408 20.3665 3.1605 20.958 4.06001 21.385 5.10649 21.812 6.153 22.0255 7.29401 22.0255 8.526L22.0255 12.4215" fill="#FFFFFF" transform="matrix(1.03276 0 0 1 256 370)"/><path d="M45.99 8.80953C45.99 9.65302 45.885 10.4055 45.6784 11.0705 45.4684 11.7355 45.1886 12.32 44.8316 12.824 44.4746 13.3315 44.0651 13.7655 43.6031 14.126 43.1374 14.4865 42.6544 14.7805 42.147 15.008 41.6396 15.2355 41.1285 15.4 40.6106 15.505 40.0924 15.61 39.6094 15.6625 39.1545 15.6625L30.7965 15.6625 30.7965 11.9665 39.1545 11.9665C39.627 11.928 40.0575 11.83 40.4389 11.676 40.824 11.5185 41.1529 11.3085 41.4259 11.0425 41.6989 10.7765 41.9126 10.458 42.0664 10.0835 42.2171 9.70901 42.294 9.28549 42.294 8.81299L42.294 7.13651C42.2449 6.67099 42.147 6.2475 41.9966 5.859 41.8459 5.4705 41.6396 5.13802 41.3771 4.86502 41.1146 4.59202 40.803 4.37501 40.4321 4.21751 40.0609 4.06001 39.6375 3.98299 39.1545 3.98299L30.8246 3.98299C30.3311 3.98299 29.9565 4.11251 29.7011 4.368 29.4454 4.62349 29.316 4.99451 29.316 5.47751L29.316 20.671 25.6235 20.671 25.6235 5.47751C25.6235 4.52902 25.795 3.72401 26.1415 3.06251 26.4881 2.40101 26.9186 1.86551 27.4365 1.45601 27.951 1.05001 28.5146 0.752514 29.1199 0.567016 29.7255 0.381515 30.2854 0.290501 30.7965 0.290501L39.1545 0.290501C39.9874 0.290501 40.7366 0.395503 41.4015 0.609005 42.063 0.822504 42.651 1.106 43.155 1.463 43.6624 1.8165 44.0929 2.2295 44.4499 2.69149 44.8069 3.15701 45.0975 3.64001 45.3319 4.1475 45.5629 4.65502 45.7309 5.166 45.8359 5.68399 45.9409 6.20201 45.9934 6.68501 45.9934 7.14L45.9934 8.80953" fill="#FFFFFF" transform="matrix(1.03276 0 0 1 256 370)"/><path d="M52.8675 20.664 49.1715 20.664 49.1715 0.2835 52.8675 0.2835 52.8675 20.664Z" fill="#FFFFFF" transform="matrix(1.03276 0 0 1 256 370)"/><path d="M77.2976 18.802C77.2976 19.068 77.2485 19.313 77.154 19.5405 77.0595 19.768 76.9301 19.964 76.7621 20.132 76.5975 20.2965 76.398 20.4295 76.1704 20.524 75.9431 20.6185 75.6979 20.6675 75.432 20.6675L62.1004 20.6675C61.761 20.6675 61.3935 20.6255 60.9979 20.545 60.606 20.4645 60.2175 20.3385 59.8324 20.167 59.4476 19.9955 59.0801 19.775 58.7299 19.5055 58.38 19.236 58.0684 18.907 57.7991 18.5255 57.5295 18.1405 57.3124 17.696 57.1515 17.1885 56.9906 16.681 56.91 16.1105 56.91 15.477L56.91 5.4705C56.91 5.13101 56.952 4.76351 57.0326 4.368 57.1129 3.97601 57.2389 3.58751 57.4106 3.20253 57.582 2.81752 57.8025 2.45002 58.0789 2.10002 58.3519 1.75002 58.6845 1.43852 59.0659 1.16901 59.451 0.899514 59.892 0.682516 60.396 0.521514 60.8966 0.360515 61.467 0.280019 62.1004 0.280019L77.1225 0.280019 77.1225 3.97601 62.1004 3.97601C61.6174 3.97601 61.2465 4.10553 60.9911 4.36102 60.7354 4.61651 60.606 4.99451 60.606 5.49851L60.606 15.4735C60.606 15.946 60.7354 16.3135 60.9979 16.576 61.257 16.835 61.6245 16.968 62.1004 16.968L73.5979 16.968 73.5979 12.334 63.7631 12.334 63.7631 8.61003 75.432 8.61003C75.6979 8.61003 75.9431 8.65901 76.1704 8.76052 76.398 8.85851 76.5941 8.99501 76.7621 9.16653 76.9264 9.33802 77.0595 9.534 77.154 9.75802 77.2485 9.98201 77.2976 10.22 77.2976 10.4755L77.2976 18.802Z" fill="#FFFFFF" transform="matrix(1.03276 0 0 1 256 370)"/><path d="M98.8399 8.526C98.8399 7.79801 98.7244 7.13651 98.4934 6.54499 98.2624 5.9535 97.9335 5.44601 97.5135 5.02601 97.0935 4.60601 96.5861 4.27702 95.9944 4.04602 95.403 3.81502 94.752 3.69952 94.0414 3.69952L89.04 3.69952C88.3189 3.69952 87.6645 3.81502 87.0731 4.04602 86.4814 4.27702 85.9706 4.60601 85.5435 5.02601 85.1164 5.44601 84.7875 5.9535 84.5565 6.54499 84.3255 7.13651 84.21 7.79801 84.21 8.526L84.21 12.4215C84.21 13.1495 84.3255 13.811 84.5565 14.4025 84.7875 14.994 85.1164 15.5015 85.5435 15.9215 85.9706 16.3415 86.478 16.6705 87.0731 16.9015 87.6645 17.1325 88.3226 17.248 89.04 17.248L94.0099 17.248C94.731 17.248 95.3854 17.1325 95.9771 16.9015 96.5685 16.6705 97.0796 16.3415 97.5064 15.9215 97.9335 15.5015 98.2624 14.994 98.4934 14.4025 98.7244 13.811 98.8399 13.1495 98.8399 12.4215L98.8399 8.526ZM102.536 12.4215C102.536 13.664 102.322 14.805 101.895 15.848 101.469 16.891 100.877 17.7905 100.117 18.5465 99.3581 19.306 98.4619 19.894 97.4261 20.3175 96.39 20.7375 95.2594 20.951 94.038 20.951L89.0366 20.951C87.8149 20.951 86.6809 20.741 85.6414 20.3175 84.5985 19.8975 83.6989 19.306 82.9429 18.5465 82.1835 17.787 81.5921 16.8875 81.1579 15.848 80.7274 14.805 80.5106 13.664 80.5106 12.4215L80.5106 8.526C80.5106 7.29401 80.7274 6.15649 81.1579 5.10649 81.5884 4.06001 82.1835 3.1605 82.9429 2.408 83.7026 1.6555 84.6019 1.06401 85.6414 0.637011 86.6846 0.21001 87.8149-0.00350004 89.0366-0.00350004L94.038-0.00350004C95.2594-0.00350004 96.39 0.21001 97.4261 0.637011 98.4619 1.06401 99.3615 1.652 100.117 2.408 100.877 3.1605 101.469 4.06001 101.895 5.10649 102.322 6.153 102.536 7.29401 102.536 8.526L102.536 12.4215Z" fill="#FFFFFF" transform="matrix(1.03276 0 0 1 256 370)"/></g></svg>