<svg width="145" height="24" xmlns="http://www.w3.org/2000/svg" xmlns:xlink="http://www.w3.org/1999/xlink" xml:space="preserve" overflow="hidden"><g transform="translate(-635 -426)"><path d="M61.2678 19.1896C61.2268 19.234 61.1774 19.2694 61.1223 19.2937 61.0673 19.318 61.0075 19.3306 60.9473 19.3308L59.8983 19.3308C59.7784 19.3262 59.6649 19.2765 59.5802 19.1917 59.4951 19.1069 59.4456 18.9932 59.4409 18.8734L59.4409 18.3694C58.9031 18.6855 58.3384 18.9532 57.7534 19.1694 57.1685 19.3841 56.5496 19.4927 55.9266 19.4899 55.4541 19.4918 54.9831 19.4342 54.5247 19.3186 54.0871 19.2102 53.68 19.0029 53.3351 18.7125 52.9765 18.4005 52.6955 18.0091 52.5148 17.5694 52.2913 17.0035 52.1864 16.3977 52.2066 15.7896L52.2066 15.5162C52.1934 14.9627 52.2894 14.412 52.4889 13.8955 52.6875 13.4309 53.0132 13.032 53.4292 12.7449 53.9416 12.3974 54.5205 12.1593 55.1289 12.0456 55.9779 11.8805 56.8419 11.8047 57.7064 11.8193L59.3962 11.8193 59.3962 10.9059C59.3962 9.94635 59.2122 9.27812 58.8494 8.90024 58.4866 8.52235 57.8527 8.328 56.9558 8.328 56.2075 8.328 55.5539 8.34541 54.9925 8.38494 54.4311 8.42447 53.9186 8.46447 53.4616 8.50918L53.3492 8.50918C53.2499 8.51078 53.1515 8.48767 53.0635 8.44188 52.9788 8.39482 52.9393 8.29506 52.9393 8.14353L52.9393 7.34353C52.9393 7.09976 53.0984 6.95576 53.4165 6.90871 53.8885 6.83402 54.4024 6.76532 54.9576 6.70259 55.6216 6.63788 56.2885 6.608 56.9558 6.61318 58.5365 6.61318 59.6734 6.98965 60.3656 7.74259 61.1045 8.62344 61.4762 9.75435 61.4047 10.9016L61.4047 18.8715C61.4052 18.9311 61.3934 18.9902 61.3699 19.0449 61.3463 19.0997 61.312 19.149 61.2682 19.1896L61.2678 19.1896ZM59.3962 13.2569 57.7064 13.2569C57.1336 13.2487 56.5614 13.2903 55.9962 13.3812 55.6155 13.4366 55.2499 13.5693 54.9224 13.7713 54.6715 13.9348 54.48 14.1743 54.3755 14.4546 54.2607 14.7886 54.2066 15.1406 54.2165 15.4936L54.2165 15.7671C54.2165 16.5896 54.3986 17.1413 54.7633 17.4221 55.2202 17.7308 55.7661 17.8797 56.3162 17.8456 56.8344 17.8474 57.3496 17.7704 57.8447 17.6169 58.3845 17.4418 58.9049 17.2119 59.3976 16.9308L59.3962 13.2569Z" fill="#FFFFFF" transform="matrix(1.02708 0 0 1 635 426)"/><path d="M116.745 8.16282C116.654 8.22329 116.552 8.26621 116.444 8.28941L115.624 8.44847C115.861 8.69953 116.048 8.99402 116.173 9.31576 116.341 9.79172 116.418 10.2951 116.4 10.7995L116.4 10.9812C116.434 11.5246 116.344 12.0687 116.134 12.5712 115.925 13.0738 115.602 13.5214 115.192 13.8791 114.384 14.5501 113.101 14.8856 111.333 14.8856 110.821 14.8939 110.31 14.8515 109.807 14.7591 109.424 14.6855 109.049 14.5752 108.688 14.4296 108.525 14.4855 108.383 14.5896 108.281 14.7282 108.179 14.8667 108.121 15.0331 108.116 15.2052 108.111 15.2882 108.122 15.3715 108.149 15.4502 108.176 15.5288 108.219 15.601 108.275 15.6626 108.434 15.7957 108.623 15.8893 108.824 15.936L112.224 16.8033C112.786 16.9401 113.329 17.0926 113.855 17.2607 114.347 17.4122 114.82 17.6225 115.262 17.8871 115.653 18.1197 115.988 18.4353 116.243 18.8118 116.497 19.214 116.625 19.6835 116.608 20.1591L116.608 20.3407C116.629 20.8368 116.53 21.3305 116.321 21.7808 116.112 22.231 115.798 22.6247 115.406 22.9289 114.608 23.5601 113.273 23.8758 111.402 23.8758 109.59 23.8758 108.268 23.5525 107.418 22.9064 107.008 22.5981 106.679 22.1952 106.459 21.7321 106.239 21.269 106.134 20.7595 106.153 20.2471L106.153 20.0433C106.144 19.444 106.294 18.853 106.588 18.3308 106.839 17.871 107.181 17.4676 107.594 17.1454L107.43 17.0758C107.083 16.9267 106.8 16.6601 106.63 16.3228 106.466 16.0056 106.38 15.6537 106.379 15.2965L106.379 15.2739C106.383 14.9549 106.462 14.6414 106.61 14.3591 106.766 14.0488 107.013 13.7937 107.319 13.6282 106.976 13.3097 106.706 12.9205 106.528 12.4875 106.344 12.0073 106.256 11.4958 106.267 10.9816L106.267 10.7981C106.266 10.2939 106.346 9.79285 106.505 9.31435 106.67 8.82118 106.951 8.3752 107.326 8.01459 107.774 7.59845 108.309 7.28612 108.891 7.09976 109.68 6.85205 110.504 6.73694 111.329 6.75906L116.332 6.75906C116.4 6.7584 116.466 6.77101 116.528 6.79624 116.591 6.82141 116.647 6.85868 116.695 6.90588 116.745 6.95012 116.786 7.00475 116.814 7.06612 116.841 7.12744 116.855 7.19398 116.854 7.26118L116.854 7.85412C116.862 7.91045 116.856 7.96776 116.837 8.02137 116.817 8.07492 116.786 8.12325 116.745 8.16235L116.745 8.16282ZM114.598 20.1567C114.605 19.9521 114.553 19.7497 114.451 19.5727 114.324 19.3917 114.16 19.2407 113.968 19.1304 113.7 18.9704 113.413 18.8439 113.113 18.7539 112.763 18.6397 112.33 18.5142 111.814 18.3774L109.236 17.7158C108.919 17.9831 108.646 18.2984 108.426 18.6504 108.197 19.0781 108.09 19.5603 108.115 20.0447L108.115 20.2485C108.111 20.5452 108.165 20.84 108.274 21.1158 108.388 21.3776 108.573 21.6019 108.809 21.7628 109.117 21.9593 109.458 22.0983 109.816 22.1727 110.337 22.2822 110.869 22.3322 111.401 22.3219 111.938 22.3332 112.474 22.2874 113.001 22.1854 113.347 22.1206 113.676 21.9888 113.971 21.7976 114.194 21.6467 114.367 21.4318 114.465 21.1812 114.56 20.9089 114.605 20.6222 114.6 20.3341L114.598 20.1567ZM114.393 10.7981C114.396 10.47 114.35 10.1434 114.257 9.82871 114.167 9.53581 114.002 9.27176 113.777 9.06306 113.508 8.82593 113.19 8.65111 112.845 8.55106 112.352 8.40654 111.838 8.3408 111.324 8.35624 110.796 8.34127 110.269 8.41087 109.763 8.56235 109.415 8.66739 109.096 8.85111 108.83 9.09929 108.615 9.31501 108.458 9.58193 108.375 9.87482 108.291 10.1759 108.25 10.4871 108.253 10.7995L108.253 10.9812C108.254 11.2436 108.292 11.5047 108.365 11.7567 108.447 12.0418 108.599 12.3017 108.808 12.5125 109.073 12.7672 109.392 12.9614 109.74 13.0814 110.249 13.2513 110.786 13.3288 111.323 13.3101 111.835 13.3231 112.347 13.2654 112.844 13.1388 113.187 13.0522 113.506 12.8882 113.776 12.6593 113.999 12.4595 114.165 12.2038 114.256 11.9186 114.348 11.6149 114.394 11.2991 114.392 10.9816L114.393 10.7981Z" fill="#FFFFFF" transform="matrix(1.02708 0 0 1 635 426)"/><path d="M128.441 13.7219 120.796 13.7219 120.796 14.0424C120.796 15.3945 121.063 16.3531 121.596 16.9181 121.912 17.2155 122.285 17.444 122.694 17.589 123.103 17.7341 123.537 17.7924 123.969 17.7605 124.64 17.7605 125.352 17.738 126.104 17.6932 126.857 17.6461 127.499 17.5864 128.034 17.5092L128.146 17.5092C128.234 17.509 128.321 17.5331 128.397 17.5788 128.437 17.6062 128.469 17.644 128.489 17.6882 128.509 17.7325 128.517 17.7814 128.511 17.8296L128.511 18.6052C128.519 18.7293 128.488 18.8527 128.422 18.9581 128.326 19.0595 128.196 19.1208 128.056 19.1294 127.4 19.2512 126.75 19.3464 126.105 19.4151 125.396 19.4865 124.683 19.5214 123.97 19.5195 123.322 19.5195 122.678 19.4308 122.054 19.256 121.442 19.0863 120.876 18.7806 120.399 18.3619 119.888 17.8998 119.49 17.3266 119.236 16.6866 118.913 15.8426 118.762 14.9427 118.791 14.0395L118.791 11.9873C118.714 10.5688 119.178 9.17393 120.091 8.08518 120.958 7.12579 122.213 6.64612 123.856 6.64612 124.604 6.63049 125.348 6.75826 126.048 7.02259 126.643 7.25614 127.178 7.6224 127.611 8.09365 128.042 8.58442 128.364 9.16103 128.555 9.78541 128.775 10.4985 128.882 11.2413 128.873 11.9873L128.873 13.2202C128.873 13.5558 128.729 13.7224 128.441 13.7224L128.441 13.7219ZM126.865 11.9878C126.865 10.6952 126.617 9.77473 126.12 9.22635 125.825 8.93478 125.47 8.71035 125.08 8.56838 124.691 8.4264 124.275 8.37026 123.861 8.40376 123.442 8.37642 123.021 8.43976 122.628 8.58941 122.235 8.73906 121.88 8.97153 121.584 9.27106 121.057 9.85021 120.794 10.7558 120.794 11.9878L120.794 12.1939 126.864 12.1939 126.865 11.9878Z" fill="#FFFFFF" transform="matrix(1.02708 0 0 1 635 426)"/><path d="M43.5195 19.0329C43.5195 19.2292 43.4376 19.3313 43.2687 19.3313L41.6254 19.3313C41.527 19.3358 41.4289 19.3162 41.3398 19.2744 41.2463 19.2091 41.1655 19.1275 41.1012 19.0334L36.5605 13.4212 36.5605 18.8739C36.5558 18.9937 36.5061 19.1074 36.4214 19.1922 36.3366 19.2769 36.2229 19.3266 36.1031 19.3313L35.0071 19.3313C34.8872 19.3266 34.7736 19.2769 34.6888 19.1922 34.604 19.1074 34.5543 18.9937 34.5496 18.8739L34.5496 2.42071C34.5498 2.36044 34.5624 2.30087 34.5867 2.24572 34.6111 2.19057 34.6465 2.14104 34.6908 2.10024 34.7315 2.05665 34.7808 2.022 34.8355 1.9985 34.8903 1.97501 34.9494 1.96318 35.0089 1.96376L36.1021 1.96376C36.1617 1.96318 36.2208 1.97501 36.2755 1.9985 36.3303 2.022 36.3796 2.05665 36.4202 2.10024 36.4646 2.14104 36.5 2.19057 36.5243 2.24572 36.5486 2.30087 36.5612 2.36044 36.5614 2.42071L36.5614 12.1186 41.1261 6.98353C41.1827 6.92136 41.248 6.86781 41.32 6.82447 41.4025 6.78692 41.4931 6.77073 41.5835 6.77741L43.1793 6.77741C43.408 6.77741 43.5224 6.86212 43.5224 7.02824 43.5217 7.07567 43.5112 7.12249 43.4916 7.16569 43.4719 7.20885 43.4434 7.24748 43.408 7.27906L38.3845 12.7129 43.4522 18.8268C43.5004 18.8843 43.5246 18.9581 43.5195 19.0329Z" fill="#FFFFFF" transform="matrix(1.02708 0 0 1 635 426)"/><path d="M50.6278 8.37741C50.1064 8.37576 49.5873 8.44852 49.0866 8.59341 48.5209 8.76951 47.9807 9.01798 47.4786 9.33271L47.4786 18.8744C47.4753 18.9946 47.4259 19.109 47.3407 19.1941 47.256 19.2792 47.1416 19.3284 47.0212 19.3318L45.9031 19.3318C45.8445 19.332 45.7866 19.3196 45.7334 19.2952 45.6801 19.2708 45.6328 19.2351 45.5948 19.1906 45.5139 19.1046 45.4694 18.9906 45.4706 18.8725L45.4706 7.23529C45.4701 7.11661 45.5145 7.00216 45.5948 6.91482 45.6331 6.87087 45.6805 6.83581 45.7337 6.81205 45.787 6.78833 45.8448 6.77652 45.9031 6.77741L46.9788 6.77741C47.0374 6.77713 47.0951 6.7896 47.1487 6.81398 47.2019 6.83835 47.2489 6.87407 47.2871 6.91859 47.3675 7.00682 47.4122 7.12231 47.4113 7.24188L47.4113 7.72753C47.9181 7.36348 48.4748 7.07511 49.0645 6.87153 49.5689 6.70574 50.0965 6.62014 50.6278 6.61788 50.9482 6.61788 51.1073 6.75435 51.1073 7.03294L51.1073 7.98071C51.1073 8.24424 50.9482 8.376 50.6278 8.376" fill="#FFFFFF" transform="matrix(1.02708 0 0 1 635 426)"/><path d="M85.5779 8.37741C85.0565 8.37576 84.5374 8.44852 84.0367 8.59341 83.4711 8.76951 82.9308 9.01798 82.4287 9.33271L82.4287 18.8744C82.4264 18.9945 82.3774 19.109 82.2927 19.1942 82.208 19.2794 82.0937 19.3287 81.9736 19.3318L80.8532 19.3318C80.7953 19.3325 80.7379 19.3207 80.6852 19.2971 80.6325 19.2735 80.5854 19.2388 80.5473 19.1953 80.4649 19.1089 80.4198 18.994 80.4207 18.8748L80.4207 7.23529C80.4193 7.11671 80.4649 7.00235 80.5473 6.91718 80.5845 6.87209 80.6311 6.83595 80.6842 6.81148 80.7369 6.78706 80.7948 6.77492 80.8532 6.776L81.9271 6.776C81.9854 6.77572 82.0433 6.78819 82.0969 6.81256 82.1501 6.83694 82.1972 6.87266 82.2353 6.91718 82.3162 7.00612 82.3609 7.12245 82.3595 7.24282L82.3595 7.72753C82.8673 7.36428 83.4245 7.07595 84.0146 6.87153 84.5191 6.70593 85.0466 6.62033 85.5779 6.61788 85.896 6.61788 86.0574 6.75906 86.0574 7.03294L86.0574 7.98353C86.0574 8.24471 85.896 8.376 85.5779 8.376" fill="#FFFFFF" transform="matrix(1.02708 0 0 1 635 426)"/><path d="M90.3421 19.1948C90.3012 19.2382 90.2522 19.2728 90.1972 19.2962 90.1426 19.3197 90.0838 19.3317 90.024 19.3313L88.928 19.3313C88.8682 19.3316 88.8089 19.3197 88.7534 19.2962 88.6983 19.2728 88.6489 19.2383 88.6075 19.1948 88.5647 19.1536 88.5308 19.1041 88.5073 19.0495 88.4838 18.9949 88.4715 18.9361 88.4711 18.8767L88.4711 7.23765C88.4734 7.11708 88.5224 7.00212 88.6075 6.91689 88.6932 6.83162 88.808 6.78264 88.9285 6.78024L90.0254 6.78024C90.0852 6.77986 90.144 6.79181 90.1986 6.81529 90.2536 6.83878 90.3026 6.87332 90.3435 6.91671 90.3873 6.95769 90.4221 7.00734 90.4456 7.06254 90.4692 7.11769 90.4809 7.17718 90.48 7.23718L90.48 18.8767C90.48 18.9362 90.4682 18.9952 90.4447 19.0498 90.4212 19.1046 90.3868 19.1539 90.3435 19.1948" fill="#FFFFFF" transform="matrix(1.02708 0 0 1 635 426)"/><path d="M103.284 19.1948C103.243 19.238 103.194 19.2724 103.139 19.2959 103.085 19.3193 103.025 19.3314 102.966 19.3313L101.87 19.3313C101.81 19.3316 101.751 19.3197 101.695 19.2962 101.64 19.2728 101.591 19.2383 101.549 19.1948 101.505 19.1542 101.471 19.1049 101.448 19.0501 101.424 18.9953 101.412 18.9363 101.413 18.8767L101.413 11.3835C101.423 10.897 101.372 10.4112 101.264 9.93694 101.188 9.59675 101.031 9.28014 100.805 9.01459 100.596 8.78362 100.328 8.61435 100.029 8.52518 99.6626 8.41788 99.2819 8.36758 98.8998 8.376 98.3878 8.38047 97.8795 8.46508 97.3939 8.62682 96.8546 8.80358 96.3285 9.01694 95.8184 9.26541L95.8184 18.8767C95.8151 18.9964 95.7661 19.1104 95.6814 19.1951 95.5972 19.2797 95.4828 19.3287 95.3633 19.3318L94.2471 19.3318C94.1887 19.3333 94.1308 19.3218 94.0776 19.2982 94.0245 19.2746 93.9769 19.2394 93.9388 19.1953 93.8579 19.1094 93.8132 18.9953 93.8146 18.8772L93.8146 7.23765C93.8122 7.11906 93.8569 7.00433 93.9388 6.91859 93.9769 6.8744 94.0245 6.83925 94.0776 6.81567 94.1308 6.79205 94.1887 6.78061 94.2471 6.78212L95.3878 6.78212C95.4461 6.78184 95.504 6.79431 95.5576 6.81868 95.6108 6.84306 95.6579 6.87878 95.696 6.92329 95.7765 7.01153 95.8212 7.12701 95.8202 7.24659L95.8202 7.68659C96.3873 7.36593 96.9831 7.09962 97.6 6.89129 98.1986 6.70513 98.8221 6.61459 99.4489 6.62306 100.833 6.62306 101.842 7.03402 102.474 7.856 103.106 8.67798 103.422 9.85021 103.421 11.3727L103.421 18.8767C103.421 18.9362 103.409 18.9952 103.385 19.0498 103.362 19.1046 103.328 19.1539 103.284 19.1948Z" fill="#FFFFFF" transform="matrix(1.02708 0 0 1 635 426)"/><path d="M141.04 19.1948C140.999 19.2382 140.95 19.2728 140.895 19.2962 140.84 19.3197 140.782 19.3317 140.722 19.3313L139.626 19.3313C139.506 19.3288 139.391 19.2801 139.306 19.1954 139.221 19.1106 139.172 18.9963 139.168 18.8762L139.168 11.3835C139.178 10.897 139.128 10.4112 139.019 9.93694 138.945 9.59657 138.789 9.27972 138.563 9.01459 138.353 8.78414 138.085 8.61497 137.787 8.52518 137.421 8.41831 137.04 8.368 136.658 8.376 136.146 8.38047 135.638 8.46508 135.152 8.62682 134.612 8.80409 134.086 9.0176 133.575 9.26588L133.575 18.8767C133.571 18.9964 133.522 19.1104 133.438 19.1951 133.353 19.2797 133.239 19.3287 133.12 19.3318L132.003 19.3318C131.944 19.333 131.887 19.3215 131.833 19.2978 131.78 19.2743 131.733 19.2392 131.695 19.1953 131.613 19.1096 131.568 18.9956 131.568 18.8772L131.568 7.23765C131.566 7.11826 131.612 7.00301 131.695 6.91718 131.733 6.87322 131.78 6.83821 131.833 6.81464 131.887 6.79101 131.944 6.77944 132.003 6.78071L133.144 6.78071C133.202 6.78066 133.26 6.79327 133.313 6.81765 133.366 6.84198 133.414 6.87755 133.452 6.92188 133.534 7.00951 133.578 7.12541 133.576 7.24518L133.576 7.68518C134.143 7.36358 134.74 7.09722 135.358 6.88988 135.956 6.70348 136.579 6.61299 137.205 6.62165 138.589 6.62165 139.598 7.03261 140.23 7.85459 140.862 8.67657 141.177 9.8488 141.176 11.3713L141.176 18.8767C141.176 18.9362 141.165 18.9952 141.141 19.0498 141.118 19.1046 141.083 19.1539 141.04 19.1948Z" fill="#FFFFFF" transform="matrix(1.02708 0 0 1 635 426)"/><path d="M90.7948 4.19247C90.7948 3.93186 90.7176 3.67711 90.5727 3.46042 90.4278 3.24374 90.2221 3.07485 89.9816 2.97512 89.7407 2.87539 89.4758 2.8493 89.2202 2.90014 88.9647 2.95098 88.7299 3.07648 88.5454 3.26075 88.3614 3.44503 88.2358 3.67981 88.1849 3.93541 88.1341 4.19101 88.16 4.45594 88.2598 4.69671 88.3595 4.93746 88.5285 5.14325 88.7449 5.28805 88.9619 5.43285 89.2165 5.51012 89.4772 5.51012 89.8268 5.51012 90.1619 5.37129 90.4089 5.12419 90.656 4.87708 90.7948 4.54193 90.7948 4.19247Z" fill="#FFFFFF" transform="matrix(1.02708 0 0 1 635 426)"/><path d="M26.1289 10.7765C26.5242 6.25035 23.0419 1.50353 13.0682 1.50353 11.3111 1.50353 5.95765 1.50353 5.58212 5.80329 5.12941 11.0056 10.7892 18.2974 16.8809 18.1981 21.9911 18.1176 25.7586 15.0071 26.1289 10.7765ZM4.30447 16.1412C1.424 12.6659-0.235295 8.70165 0.0272939 5.74635 0.487059 0.593882 6.00706 0 10.1176 0 27.2301 0 27.8466 9.68047 27.6155 12.2607 27.1181 17.8551 21.7572 22.0753 15.1859 22.0753 12.7699 22.0753 8.61176 21.3398 4.30494 16.1426" fill="#FFFFFF" transform="matrix(1.02708 0 0 1 635 426)"/><path d="M24.1704 8.99953C24.3915 6.47624 22.6419 3.76282 16.9031 3.76282 15.9238 3.76282 12.9336 3.83247 12.7252 6.22588 12.4696 9.12659 15.5981 12.7727 18.4762 13.1115 21.4409 13.4569 23.9666 11.3567 24.1704 9.00047L24.1704 8.99953ZM10.6376 12.5689C8.82306 10.3351 7.74212 7.824 7.91106 5.94024 8.20424 2.65694 11.7064 2.24094 14.3256 2.24094 19.3214 2.24094 22.5501 3.75812 23.9619 5.44094 25.069 6.72781 25.6221 8.40042 25.5002 10.0936 25.2118 13.7722 21.5002 16.3619 17.8005 16.3619 16.9355 16.3619 13.7718 16.4264 10.6376 12.5689Z" fill="#FFFFFF" transform="matrix(1.02708 0 0 1 635 426)"/><path d="M22.5449 7.57082C22.6268 6.64376 21.8466 5.86588 19.9252 5.672 19.4132 5.61976 18.4118 5.66965 18.3346 6.552 18.2405 7.61835 19.3464 9.09318 20.6508 9.09318 21.0988 9.11882 21.5403 8.97755 21.8901 8.69666 22.24 8.41576 22.4733 8.01515 22.5449 7.57224L22.5449 7.57082ZM19.1699 11.6099C18.1656 11.5228 17.0198 10.832 16.0828 9.71576 15.1459 8.59953 14.6193 7.31718 14.7035 6.36282 14.8527 4.70259 16.6329 4.51106 17.9567 4.51106 20.3624 4.51106 22.1125 5.25647 22.8207 6.11106 23.1026 6.43026 23.3167 6.80344 23.45 7.20791 23.5833 7.61238 23.6331 8.03972 23.5962 8.464 23.2706 11.1209 20.5374 11.7449 19.1699 11.608" fill="#FFFFFF" transform="matrix(1.02708 0 0 1 635 426)"/><path d="M73.3275 6.768 73.3327 2.42118C73.3322 2.36123 73.344 2.30182 73.3675 2.24666 73.3911 2.19151 73.4254 2.14182 73.4692 2.10071 73.5101 2.05666 73.5595 2.02162 73.6151 1.9978 73.6701 1.97398 73.7294 1.96191 73.7896 1.96235L74.888 1.95624C74.9478 1.95565 75.0066 1.96748 75.0616 1.99097 75.1162 2.01447 75.1656 2.04912 75.2061 2.09271 75.2504 2.13365 75.2856 2.18321 75.3101 2.23832 75.3341 2.29344 75.3468 2.35295 75.3473 2.41318L75.3449 6.8 77.8132 6.8C77.9336 6.8024 78.0485 6.85139 78.1341 6.93666 78.2193 7.02188 78.2682 7.13685 78.2706 7.25741L78.2706 8.03294C78.2682 8.15351 78.2193 8.26847 78.1341 8.35369 78.0485 8.43896 77.9336 8.48795 77.8132 8.49035L75.3431 8.49035 75.3431 16.4386C75.2852 16.8542 75.3835 17.2765 75.6188 17.624 75.8984 17.8195 76.2391 17.9085 76.5784 17.8748L77.8584 17.8748C78.1765 17.8748 78.3355 17.9816 78.3355 18.1981L78.3355 19.0108C78.3355 19.2268 78.1991 19.3586 77.9256 19.4033 77.6969 19.4329 77.4461 19.4602 77.1727 19.4828 76.8993 19.5054 76.6551 19.5176 76.4419 19.5176 75.9826 19.5227 75.5238 19.481 75.0725 19.3934 74.712 19.3268 74.3765 19.1642 74.1007 18.9228 73.8311 18.667 73.6339 18.3446 73.5289 17.9882 73.3859 17.491 73.3205 16.9746 73.3351 16.4574L73.3351 8.49035 67.4193 8.49035 67.4216 18.8767C67.4231 18.9953 67.3774 19.1096 67.2951 19.1948 67.2574 19.2395 67.2099 19.2754 67.1567 19.2998 67.1035 19.3242 67.0456 19.3366 66.9868 19.336L65.8687 19.336C65.7482 19.3327 65.6339 19.2834 65.5492 19.1984 65.464 19.1133 65.4146 18.9989 65.4113 18.8786L65.4113 8.46306 63.1967 8.21224C62.9059 8.18259 62.7642 8.04565 62.7642 7.80235L62.7642 7.18588C62.7619 7.13049 62.7718 7.07534 62.7934 7.02424 62.8146 6.97313 62.8471 6.92744 62.8885 6.89035 62.9727 6.81369 63.0828 6.77271 63.1967 6.776L65.4113 6.776 65.4113 5.12894C65.3977 4.61098 65.4706 4.09439 65.6273 3.60047 65.7506 3.2259 65.9671 2.88888 66.2565 2.62118 66.544 2.36928 66.8885 2.19156 67.2602 2.10353 67.7016 1.99965 68.1539 1.95018 68.6075 1.95624 68.8593 1.95217 69.1111 1.96791 69.3605 2.00329 69.5595 2.03294 69.7369 2.06306 69.8875 2.09271 70.176 2.16988 70.3223 2.29176 70.3223 2.45788L70.3223 3.21365C70.3223 3.44 70.1812 3.55435 69.9096 3.55435L68.8137 3.55435C68.6188 3.5321 68.4216 3.54899 68.2334 3.60402 68.0452 3.65905 67.8697 3.75112 67.7176 3.87482 67.4772 4.24657 67.3727 4.68997 67.4221 5.12988L67.4221 6.76518 73.3275 6.768Z" fill="#FFFFFF" transform="matrix(1.02708 0 0 1 635 426)"/></g></svg>